<?xml version="1.0" encoding="UTF-8"?>
<!DOCTYPE svg PUBLIC "-//W3C//DTD SVG 1.1//EN" "http://www.w3.org/Graphics/SVG/1.1/DTD/svg11.dtd">
<!-- Creator: CorelDRAW 2021 (64-Bit) -->
<svg xmlns="http://www.w3.org/2000/svg" xml:space="preserve" width="158mm" height="48mm" version="1.1" style="shape-rendering:geometricPrecision; text-rendering:geometricPrecision; image-rendering:optimizeQuality; fill-rule:evenodd; clip-rule:evenodd"
viewBox="0 0 16142.65 4904.1"
 xmlns:xlink="http://www.w3.org/1999/xlink"
 xmlns:xodm="http://www.corel.com/coreldraw/odm/2003">
 <defs>
  <style type="text/css">
   <![CDATA[
    .fil3 {fill:none}
    .fil1 {fill:#E51A50;fill-rule:nonzero}
    .fil0 {fill:#5686C5;fill-rule:nonzero}
    .fil2 {fill:#203769;fill-rule:nonzero}
   ]]>
  </style>
 </defs>
 <g id="Слой_x0020_1">
  <metadata id="CorelCorpID_0Corel-Layer"/>
  <g id="_2408487846384">
   <g>
    <g>
     <path class="fil0" d="M5763.21 3733.16c-58.93,0 -117.76,-25.17 -159.08,-73.52l-1540.32 -1816.28c-74.77,-87.53 -63.77,-219.15 23.86,-293.95 88.21,-74.53 219.6,-63.78 294.23,24.14l1540.5 1815.81c74.63,87.76 63.7,219.93 -24.09,294.08 -39.22,33.36 -87.24,49.72 -135.1,49.72z"/>
     <path class="fil0" d="M10017.16 1917.37l-873.9 0c-115.36,0 -209,-93.59 -209,-208.67 0,-115.24 93.64,-209.07 209,-209.07l873.9 0c115.22,0 208.76,93.83 208.76,209.07 0,115.08 -93.55,208.67 -208.76,208.67z"/>
     <path class="fil1" d="M10017.16 1499.63c115.22,0 208.76,93.83 208.76,209.07 0,115.08 -93.55,208.67 -208.76,208.67 177.83,0 322.13,144.25 322.13,321.87 0,177.86 -144.29,322.25 -322.13,322.25l-52.01 0c-115.39,0 -208.65,93.57 -208.65,208.67 0,115.57 93.26,208.88 208.65,208.88l52.01 0c407.96,0 739.64,-331.65 739.64,-739.8 0,-407.7 -331.68,-739.61 -739.64,-739.61z"/>
     <path class="fil2" d="M9143.26 1917.37c-115.36,0 -209,-93.59 -209,-208.67l0 1815.79c0,115.07 93.64,208.67 209,208.67 115.2,0 208.88,-93.6 208.88,-208.67l0 -1607.12 -208.88 0z"/>
     <path class="fil0" d="M9756.5 2770.16c0,-115.1 93.26,-208.67 208.65,-208.67l-613 0 0 417.55 613 0c-115.39,0 -208.65,-93.31 -208.65,-208.88z"/>
     <g>
      <path class="fil2" d="M10713.05 3396.72l-378.63 -490.02c-96.38,45.88 -203.57,72.35 -317.26,72.35l-154.47 0 520.15 673.14c41.13,53.29 102.69,80.98 165.51,80.98 44.38,0 89.42,-14.24 127.54,-43.72 90.85,-70.37 107.7,-201.55 37.16,-292.72z"/>
     </g>
     <g>
      <path class="fil0" d="M12162.5 1917.37l-822.2 0c-115.08,0 -208.77,-93.59 -208.77,-208.67 0,-115.24 93.69,-209.07 208.77,-209.07l822.2 0c115.81,0 209.01,93.83 209.01,209.07 0,115.08 -93.2,208.67 -209.01,208.67z"/>
     </g>
     <path class="fil1" d="M12165.11 1499.94c114.15,1.5 206.39,94.51 206.39,208.76 0,115.08 -93.2,208.67 -209.01,208.67l-7.59 0c368.93,0 636.55,294.07 636.55,699.14 0,115.48 93.42,208.79 208.81,208.79 115.24,0 208.76,-93.31 208.76,-208.79 0,-633.02 -448.04,-1111.09 -1043.92,-1116.57z"/>
     <path class="fil2" d="M13000.27 2825.3c-115.39,0 -208.81,-93.31 -208.81,-208.79 0,403.11 -265.04,695.92 -631.22,698.83l2.26 0c115.81,0 209.01,93.85 209.01,209.15 0,114.42 -92.24,206.9 -206.39,208.51 595.88,-5.33 1043.92,-483.42 1043.92,-1116.49 0,115.48 -93.53,208.79 -208.76,208.79z"/>
     <path class="fil2" d="M11340.3 1917.37c-115.08,0 -208.77,-93.59 -208.77,-208.67l0 1815.79c0,115.07 93.69,208.67 208.77,208.67 115.14,0 208.74,-93.6 208.74,-208.67l0 -1607.12 -208.74 0z"/>
     <path class="fil2" d="M11340.3 1917.37c-115.08,0 -208.77,-93.59 -208.77,-208.67l0 1815.79c0,115.07 93.69,208.67 208.77,208.67 115.14,0 208.74,-93.6 208.74,-208.67l0 -1607.12 -208.74 0z"/>
     <path class="fil0" d="M12162.5 3315.34l-613.46 0 0 209.15c0,115.07 -93.6,208.67 -208.74,208.67l822.2 0c115.81,0 209.01,-93.6 209.01,-208.67 0,-115.3 -93.2,-209.15 -209.01,-209.15z"/>
     <g>
      <path class="fil0" d="M13748.16 1774.21c461.25,-461.21 1211.23,-461.21 1672.39,0 81.63,81.35 81.63,213.6 0,294.84 -81.7,81.65 -213.71,81.65 -295.07,0 -298.49,-298.25 -783.59,-298.25 -1081.99,0 -81.8,81.65 -213.77,81.65 -295.33,0 -81.61,-81.23 -81.61,-213.49 0,-294.84z"/>
     </g>
     <path class="fil0" d="M15420.55 3446.43c81.63,-81.44 81.63,-214.07 0,-295.31 -81.31,-81.69 -213.71,-81.69 -295.07,0 -298.49,298.49 -783.59,298.49 -1081.99,0 -81.8,-81.69 -213.77,-81.69 -295.33,0 -81.61,81.23 -81.61,213.87 0,295.31 461.25,461 1211.23,460.83 1672.39,0z"/>
     <path class="fil1" d="M15420.55 1774.21c81.63,81.35 81.63,213.6 0,294.84 -81.7,81.65 -213.71,81.65 -295.07,0 298.22,298.29 298.22,783.92 0,1082.07 81.37,-81.69 213.77,-81.69 295.07,0 81.63,81.23 81.63,213.87 0,295.31 461.06,-461.13 461.06,-1211.39 0,-1672.22z"/>
     <path class="fil2" d="M13748.16 3151.12c81.56,-81.69 213.53,-81.69 295.33,0 -298.31,-298.15 -298.31,-783.4 0,-1082.07 -81.8,81.65 -213.77,81.65 -295.33,0 -81.61,-81.23 -81.61,-213.49 0,-294.84 -461,460.82 -461,1211.09 0,1672.22 -81.61,-81.44 -81.61,-214.07 0,-295.31z"/>
     <g>
      <path class="fil0" d="M6616.84 2069.05c-81.35,-81.23 -81.35,-213.49 0,-294.84 461.11,-461.21 1211.25,-461.21 1672.53,0 81.58,81.35 81.58,213.6 0,294.84 -81.65,81.65 -213.66,81.65 -295.05,0 -298.36,-298.25 -783.97,-298.25 -1082.24,0 -81.58,81.65 -213.46,81.65 -295.24,0z"/>
     </g>
     <path class="fil1" d="M8289.38 1774.21c81.58,81.35 81.58,213.6 0,294.84 -81.65,81.65 -213.66,81.65 -295.05,0 298.11,298.67 298.11,783.92 0,1082.07 -81.58,81.23 -81.58,213.87 0,295.31 81.4,81.56 213.4,81.56 295.05,0 461.04,-461.13 461.04,-1211.39 0,-1672.22z"/>
     <path class="fil2" d="M6616.84 3151.12c81.78,-81.46 213.66,-81.46 295.24,0 -149.16,-149.23 -223.62,-345.01 -223.62,-540.93 0,-195.88 74.46,-391.75 223.62,-541.14 -81.58,81.65 -213.46,81.65 -295.24,0 -81.35,-81.23 -81.35,-213.49 0,-294.84 -461.11,460.82 -461.11,1211.09 0,1672.22 -81.35,-81.44 -81.35,-213.68 0,-295.31z"/>
     <path class="fil0" d="M7601.14 3840.13l-689.06 -689.02c-81.58,-81.46 -213.46,-81.46 -295.24,0 -81.35,81.63 -81.35,213.87 0,295.31l688.98 688.87c81.72,81.31 213.61,81.31 295.31,0 81.18,-81.8 81.18,-213.87 0,-295.17z"/>
     <g>
      <path class="fil2" d="M7601.14 3840.13c79.99,79.77 80.91,208.67 3.69,290.7l684.55 -684.41c-81.65,81.56 -213.66,81.56 -295.05,0 -81.58,-81.44 -81.58,-214.07 0,-295.31l-541.04 541.08 147.86 147.94z"/>
     </g>
     <g>
      <path class="fil1" d="M5922.4 3389.36c26.85,31.56 42.24,68.98 47.34,107.27l0 -1787.93c0,-115.24 -93.62,-209.07 -208.81,-209.07 -115.23,0 -208.91,93.83 -208.91,209.07l0 1244.28 370.38 436.38z"/>
     </g>
     <g>
      <path class="fil2" d="M4063.75 1843.36c-27.11,-31.59 -42.24,-68.96 -47.41,-107.3l0 1788.36c0,115.14 93.42,208.74 208.83,208.74 115.17,0 208.79,-93.6 208.79,-208.74l0 -1244.56 -370.22 -436.51z"/>
     </g>
    </g>
    <g>
     <path class="fil2" d="M866.58 3054.82c-227.9,-227.94 -227.9,-598.96 -0.25,-827.47l188.03 -187.94c62.35,-62.35 62.35,-163.33 0,-225.88 -62.46,-62.03 -163.57,-62.03 -225.73,0 0,0 -187.99,188.13 -188.33,188.32 -352.23,352.57 -351.98,926.25 0.57,1278.97 0.19,0.08 0.58,0.38 0.82,0.47l186.94 186.98c62.16,62.3 163.28,62.3 225.73,0 62.35,-62.65 62.35,-163.62 0,-225.88 0,0 -132.18,-132.33 -187.79,-187.55z"/>
     <path class="fil2" d="M2835.42 4682.62c-87.92,0 -159.41,-71.44 -159.41,-159.55l0 -69.2c-210.33,169.22 -511.2,169.22 -721.59,0.14l0 -363.29c0,-87.85 -71.46,-159.59 -159.65,-159.59 -88.44,0 -159.6,71.73 -159.6,159.59l0 432.35c0,40.88 15.55,81.69 46.32,112.65 349.36,352.72 918.31,352.72 1267.77,0 6.23,-6.26 16.6,-20.91 16.6,-20.91 -29.05,40.88 -76.43,67.81 -130.45,67.81z"/>
     <path class="fil1" d="M1681.49 4635.72c-30.77,-30.96 -46.32,-71.77 -46.32,-112.65l0 -69.2c-210.49,169.22 -511.16,169.22 -721.74,0.14l0 -941.87c-31.29,-5.26 -60.91,-19.96 -84.79,-43.88 0,0 -219.68,-221.09 -234.56,-238.38l0 1293.19c0,40.88 15.6,81.69 46.23,112.65 314.24,316.92 804.53,348.93 1154.46,96.91 -39.77,-28.52 -77.9,-60.81 -113.27,-96.91z"/>
     <g>
      <path class="fil0" d="M1154.87 493.97c-61.99,-62.35 -61.99,-163.47 0,-225.6 352.93,-352.7 926.74,-352.7 1279.54,0 62.46,62.13 62.46,163.25 0,225.6 -62.46,62.55 -163.57,62.55 -225.64,0 -228.33,-228.17 -599.55,-228.17 -827.87,0 -62.46,62.55 -163.3,62.55 -226.03,0z"/>
     </g>
     <path class="fil1" d="M2434.41 268.37c62.46,62.13 62.46,163.25 0,225.6 -62.46,62.55 -163.57,62.55 -225.64,0 227.99,228.47 227.99,599.61 0,827.69 -62.41,62.35 -62.41,163.66 0,225.94 62.07,62.45 163.18,62.45 225.64,0 352.61,-352.85 352.61,-926.6 0,-1279.22z"/>
     <path class="fil2" d="M1154.87 1321.65c62.73,-62.17 163.57,-62.17 226.03,0 -114.19,-114.04 -171.09,-263.88 -171.09,-413.77 0,-149.75 56.9,-299.77 171.09,-413.92 -62.46,62.55 -163.3,62.55 -226.03,0 -61.99,-62.35 -61.99,-163.47 0,-225.6 -352.72,352.63 -352.72,926.37 0,1279.22 -61.99,-62.27 -61.99,-163.35 0,-225.94z"/>
     <path class="fil0" d="M1907.89 1848.85l-526.99 -527.2c-62.46,-62.17 -163.3,-62.17 -226.03,0 -61.99,62.59 -61.99,163.66 0,225.94l527.13 527.04c62.46,62.31 163.26,62.31 225.88,0 62.18,-62.54 62.18,-163.57 0,-225.77z"/>
     <g>
      <path class="fil2" d="M1907.89 1848.85c61.13,61.15 61.89,159.5 2.88,222.33l523.65 -523.59c-62.46,62.45 -163.57,62.45 -225.64,0 -62.41,-62.27 -62.41,-163.58 0,-225.94l-414.01 413.96 0 0.14 113.12 113.1z"/>
     </g>
     <path class="fil2" d="M2722.42 3054.82c228.38,-227.94 228.38,-598.96 0.53,-827.47 -0.15,-0.19 -188.12,-187.94 -188.12,-187.94 -62.17,-62.31 -62.17,-163.33 0,-225.88 62.35,-62.03 163.76,-62.03 225.93,0 0,0 187.93,188.32 188.36,188.37 352.2,352.6 352.2,926.34 -0.6,1278.92 -0.39,0.28 -0.83,0.38 -0.83,0.47l-186.93 186.98c-62.17,62.3 -163.57,62.3 -225.64,0 -62.46,-62.65 -62.46,-163.62 0,-225.88 0,0 132.23,-132.33 187.31,-187.55z"/>
     <path class="fil0" d="M2995.06 3229.79c-14.56,17.28 -234.31,238.47 -234.31,238.47 -23.78,23.92 -53.65,38.38 -84.75,43.88l0 1010.93c0,88.11 71.5,159.55 159.41,159.55 88.29,0 159.65,-71.44 159.65,-159.55l0 -1293.28z"/>
    </g>
   </g>
   <rect class="fil3" x="-0.01" y="-0.01" width="16142.65" height="4904.1"/>
  </g>
 </g>
</svg>
