<svg width="1685" height="282" viewBox="0 0 1685 282" fill="none" xmlns="http://www.w3.org/2000/svg">
<path d="M972.071 112.863H1006.08C1008.91 112.863 1011.21 115.159 1011.21 117.993V176.936C1011.21 179.77 1013.51 182.066 1016.33 182.066H1031.04C1033.88 182.066 1036.17 179.77 1036.17 176.936V117.993C1036.17 115.159 1038.47 112.863 1041.3 112.863H1075.13V104.239H972.071V112.863V112.863Z" fill="white"/>
<path d="M1300.36 168.317V151.992C1300.36 149.157 1302.65 146.863 1305.49 146.863H1352.04V138.481H1305.49C1302.65 138.481 1300.36 136.186 1300.36 133.351V117.992C1300.36 115.158 1302.65 112.862 1305.49 112.862H1357.43V104.238H1275.57V176.935C1275.57 179.77 1277.86 182.065 1280.69 182.065H1359.94V173.447H1305.49C1302.65 173.447 1300.36 171.151 1300.36 168.317V168.317Z" fill="white"/>
<path d="M1446.96 160.198C1445.41 161.979 1442.47 160.877 1442.47 158.504V104.239H1417.69V176.936C1417.69 179.77 1419.98 182.066 1422.81 182.066H1438.71C1440.19 182.066 1441.59 181.435 1442.57 180.323L1489.8 126.587C1491.37 124.811 1494.3 125.917 1494.3 128.276V176.936C1494.3 179.77 1496.59 182.066 1499.43 182.066H1513.59C1516.42 182.066 1518.72 179.77 1518.72 176.936V104.239H1496.09L1446.96 160.198V160.198Z" fill="white"/>
<path d="M1180.79 150.095H1157.59C1154.75 150.095 1152.46 147.799 1152.46 144.969V117.153C1152.46 114.319 1154.75 112.023 1157.59 112.023H1181.43C1192.5 112.023 1201.37 121.482 1200.39 132.765C1199.52 142.698 1190.76 150.095 1180.79 150.095ZM1195.85 104.239H1127.66V176.936C1127.66 179.77 1129.96 182.066 1132.79 182.066H1147.33C1150.16 182.066 1152.46 179.77 1152.46 176.936V157.767H1194.64C1213.28 157.767 1227.47 138.72 1218.8 119.036C1214.82 109.986 1205.74 104.239 1195.85 104.239V104.239Z" fill="white"/>
<path d="M1649.47 168.317C1649.47 171.151 1647.17 173.447 1644.34 173.447H1609.04C1605.76 173.447 1603.31 170.398 1604.04 167.192L1615.38 116.861C1615.91 114.527 1617.99 112.862 1620.39 112.862H1644.34C1647.17 112.862 1649.47 115.158 1649.47 117.992V168.317V168.317ZM1674.24 173.447V104.238H1596.99L1583.98 169.321C1583.5 171.719 1581.4 173.447 1578.96 173.447H1571.12V193.634C1571.12 196.464 1573.42 198.76 1576.25 198.76H1580.56C1582.96 198.76 1585.04 197.1 1585.57 194.761L1587.52 186.064C1588.05 183.729 1590.13 182.065 1592.53 182.065H1662.43C1664.83 182.065 1666.91 183.729 1667.43 186.07L1669.39 194.761C1669.92 197.1 1672 198.76 1674.4 198.76H1679.36C1682.19 198.76 1684.49 196.464 1684.49 193.634V173.447H1674.24V173.447Z" fill="white"/>
<path d="M1496.21 82.8604H1442.74V88.971H1496.21V82.8604Z" fill="white"/>
<path d="M968.014 258.134L827.939 118.059L922.509 23.489C931.175 14.8213 925.037 0 912.778 0H788.226C776.385 0 765.034 4.70332 756.662 13.0741L638.664 131.074V20.6361C638.664 9.236 629.424 0 618.028 0H534.364C522.527 0 511.171 4.70332 502.8 13.0741L384.801 131.074V20.6361C384.801 9.236 375.56 0 364.166 0H280.685C268.844 0 257.488 4.70332 249.117 13.0741L4.06183 258.134C-4.60476 266.801 1.53317 281.623 13.7916 281.623H145.39C157.231 281.623 168.587 276.921 176.958 268.549L295.312 150.195V260.988C295.312 272.388 304.553 281.623 315.947 281.623H371.805C383.641 281.623 394.997 276.915 403.368 268.549L521.722 150.195V260.988C521.722 272.388 530.957 281.623 542.357 281.623H622.663C634.5 281.623 645.856 276.921 654.227 268.549L724.672 198.103L795.119 268.549C803.489 276.921 814.845 281.623 826.681 281.623H958.283C970.543 281.623 976.681 266.801 968.014 258.134V258.134Z" fill="white"/>
</svg>
