<svg width="1685" height="282" viewBox="0 0 1685 282" fill="none" xmlns="http://www.w3.org/2000/svg">
<path d="M972.091 113.067H1006.08C1008.91 113.067 1011.2 115.362 1011.2 118.194V177.106C1011.2 179.938 1013.5 182.232 1016.33 182.232H1031.03C1033.86 182.232 1036.16 179.938 1036.16 177.106V118.194C1036.16 115.362 1038.46 113.067 1041.29 113.067H1075.09V104.448H972.091V113.067Z" fill="#323277"/>
<path d="M1300.2 168.49V152.174C1300.2 149.34 1302.49 147.047 1305.33 147.047H1351.85V138.67H1305.33C1302.49 138.67 1300.2 136.376 1300.2 133.543V118.192C1300.2 115.359 1302.49 113.065 1305.33 113.065H1357.24V104.445H1275.42V177.104C1275.42 179.938 1277.71 182.231 1280.55 182.231H1359.75V173.617H1305.33C1302.49 173.617 1300.2 171.322 1300.2 168.49Z" fill="#323277"/>
<path d="M1446.73 160.376C1445.17 162.156 1442.24 161.055 1442.24 158.683V104.448H1417.47V177.106C1417.47 179.938 1419.76 182.232 1422.59 182.232H1438.48C1439.96 182.232 1441.36 181.602 1442.33 180.49L1489.55 126.783C1491.11 125.008 1494.04 126.113 1494.04 128.471V177.106C1494.04 179.938 1496.33 182.232 1499.16 182.232H1513.32C1516.15 182.232 1518.45 179.938 1518.45 177.106V104.448H1495.83L1446.73 160.376Z" fill="#323277"/>
<path d="M1180.7 150.279H1157.51C1154.68 150.279 1152.38 147.984 1152.38 145.155V117.354C1152.38 114.521 1154.68 112.226 1157.51 112.226H1181.33C1192.4 112.226 1201.26 121.681 1200.28 132.958C1199.42 142.886 1190.67 150.279 1180.7 150.279ZM1195.75 104.448H1127.6V177.106C1127.6 179.938 1129.9 182.232 1132.72 182.232H1147.26C1150.08 182.232 1152.38 179.938 1152.38 177.106V157.946H1194.54C1213.17 157.946 1227.35 138.909 1218.69 119.236C1214.71 110.191 1205.64 104.448 1195.75 104.448Z" fill="#323277"/>
<path d="M1649.13 168.49C1649.13 171.322 1646.83 173.617 1644 173.617H1608.72C1605.43 173.617 1602.99 170.57 1603.72 167.366L1615.06 117.062C1615.58 114.728 1617.66 113.065 1620.06 113.065H1643.99C1646.83 113.065 1649.13 115.359 1649.13 118.192V168.49ZM1673.89 173.617V104.445H1596.67L1583.67 169.494C1583.19 171.891 1581.09 173.617 1578.65 173.617H1570.82V193.793C1570.82 196.622 1573.11 198.917 1575.94 198.917H1580.25C1582.65 198.917 1584.73 197.258 1585.26 194.919L1587.21 186.227C1587.74 183.894 1589.81 182.231 1592.22 182.231H1662.08C1664.48 182.231 1666.55 183.894 1667.08 186.233L1669.03 194.919C1669.56 197.258 1671.64 198.917 1674.04 198.917H1679C1681.83 198.917 1684.13 196.622 1684.13 193.793V173.617H1673.89Z" fill="#323277"/>
<path d="M1495.95 83.0801H1442.51V89.1876H1495.95V83.0801Z" fill="#323277"/>
<path d="M968.037 258.259L828.036 118.26L922.555 23.7411C931.217 15.0778 925.082 0.264648 912.831 0.264648H788.345C776.51 0.264648 765.166 4.96485 756.799 13.3319L638.864 131.268V20.889C638.864 9.49578 629.629 0.264648 618.24 0.264648H534.62C522.79 0.264648 511.44 4.96485 503.074 13.3319L385.137 131.268V20.889C385.137 9.49578 375.902 0.264648 364.514 0.264648H281.078C269.243 0.264648 257.893 4.96485 249.527 13.3319L4.60353 258.259C-4.05779 266.922 2.07629 281.736 14.3287 281.736H145.856C157.691 281.736 169.041 277.036 177.407 268.668L295.697 150.379V261.112C295.697 272.505 304.932 281.736 316.321 281.736H372.148C383.979 281.736 395.328 277.03 403.695 268.668L521.985 150.379V261.112C521.985 272.505 531.215 281.736 542.608 281.736H622.871C634.702 281.736 646.052 277.036 654.418 268.668L724.826 198.261L795.234 268.668C803.6 277.036 814.95 281.736 826.78 281.736H958.31C970.564 281.736 976.699 266.922 968.037 258.259Z" fill="#323277"/>
</svg>
